Coordinates
version=1
nRows=6
nColumns=63
inDegrees=yes

Units are S.I. units (second, meters, Newtons, ...)
If the header above contains a line with 'inDegrees', this indicates whether rotational values are in degrees (yes) or radians (no).

endheader
time	pelvis_tilt	pelvis_list	pelvis_rotation	pelvis_tx	pelvis_ty	pelvis_tz	hip_flexion_r	hip_adduction_r	hip_rotation_r	knee_angle_r	knee_angle_r_beta	ankle_angle_r	subtalar_angle_r	mtp_angle_r	hip_flexion_l	hip_adduction_l	hip_rotation_l	knee_angle_l	knee_angle_l_beta	ankle_angle_l	subtalar_angle_l	mtp_angle_l	L5_S1_Flex_Ext	L5_S1_Lat_Bending	L5_S1_axial_rotation	L4_L5_Flex_Ext	L4_L5_Lat_Bending	L4_L5_axial_rotation	L3_L4_Flex_Ext	L3_L4_Lat_Bending	L3_L4_axial_rotation	L2_L3_Flex_Ext	L2_L3_Lat_Bending	L2_L3_axial_rotation	L1_L2_Flex_Ext	L1_L2_Lat_Bending	L1_L2_axial_rotation	L1_T12_Flex_Ext	L1_T12_Lat_Bending	L1_T12_axial_rotation	Abs_r3	Abs_r2	Abs_r1	Abs_t1	Abs_t2	neck_flexion	neck_bending	neck_rotation	arm_flex_r	arm_add_r	arm_rot_r	elbow_flex_r	pro_sup_r	wrist_flex_r	wrist_dev_r	arm_flex_l	arm_add_l	arm_rot_l	elbow_flex_l	pro_sup_l	wrist_flex_l	wrist_dev_l
1.516667	3.317173	-0.892205	88.106736	0.149562	0.890864	0.489889	-6.513397	2.165075	-29.551151	8.727504	0.152324	27.114458	15.189547	0.000000	-7.922777	-4.153854	7.574039	0.374987	0.006545	29.535779	-7.983716	0.000000	0.205732	0.656322	-0.965568	0.382065	0.872908	-1.025916	0.337997	1.595781	-1.025916	0.235131	1.595781	-0.844872	0.191043	1.338372	-0.784524	0.117555	1.016643	-0.724176	1.469525	7.424446	-5.370199	0.000000	0.000000	26.605607	3.236830	8.365902	7.796307	-8.844125	113.479698	12.004369	12.699942	1.098288	-2.511023	6.897468	-6.157110	95.631953	15.089139	58.134294	-1.372756	1.196633
1.533333	3.386091	-0.851215	88.342378	0.149295	0.890889	0.489569	-6.686360	2.300709	-29.951021	8.510293	0.148533	27.005049	15.480420	0.000000	-7.966762	-4.259818	7.912091	0.352673	0.006155	29.501911	-8.178773	0.000000	0.198450	0.663936	-0.997685	0.368542	0.883035	-1.060040	0.326034	1.614294	-1.060040	0.226809	1.614294	-0.872974	0.184281	1.353898	-0.810619	0.113394	1.028437	-0.748264	1.417511	7.510576	-5.548823	0.000000	0.000000	26.646124	3.235506	8.633335	7.656189	-8.848736	113.121553	11.897485	12.675312	1.099932	-2.552781	7.007181	-6.062046	96.296482	14.973865	58.843787	-1.763080	1.024140
1.550000	3.449648	-0.820982	88.590090	0.149016	0.890894	0.489258	-6.828955	2.435780	-30.213125	8.324766	0.145295	26.918333	15.569657	0.000000	-7.975008	-4.363639	8.136384	0.371459	0.006483	29.518976	-8.207756	0.000000	0.195524	0.670989	-1.034790	0.363108	0.892415	-1.099464	0.321227	1.631442	-1.099464	0.223465	1.631442	-0.905441	0.181564	1.368280	-0.840767	0.111723	1.039361	-0.776092	1.396610	7.590357	-5.755191	0.000000	0.000000	26.578051	3.179565	8.851067	7.529690	-8.884518	112.527074	11.859264	13.072414	1.131902	-2.535692	7.233306	-5.952137	97.939102	14.778120	58.450283	-2.082616	0.733740
1.566667	3.505887	-0.790950	88.851565	0.148735	0.890885	0.488989	-6.973490	2.569195	-30.553819	8.126644	0.141837	26.827995	15.724460	0.000000	-7.986183	-4.464623	8.413059	0.367065	0.006406	29.499855	-8.295928	0.000000	0.190958	0.676896	-1.074933	0.354627	0.900272	-1.142116	0.313724	1.645806	-1.142116	0.218245	1.645806	-0.940566	0.177323	1.380327	-0.873383	0.109113	1.048513	-0.806200	1.363991	7.657188	-5.978454	0.000000	0.000000	26.575469	3.101451	9.028947	7.435194	-8.892861	112.278271	11.759961	13.257947	1.294381	-2.537766	7.370371	-5.883699	98.739940	14.672792	58.557992	-2.223421	0.631549
1.583333	3.549593	-0.755056	89.109996	0.148500	0.890863	0.488685	-7.127759	2.695535	-30.843352	7.923048	0.138283	26.757017	15.835278	0.000000	-8.001780	-4.555586	8.595638	0.372442	0.006500	29.516060	-8.259481	0.000000	0.186119	0.680596	-1.116296	0.345642	0.905193	-1.186065	0.305776	1.654802	-1.186065	0.212716	1.654802	-0.976759	0.172830	1.387872	-0.906991	0.106349	1.054244	-0.837222	1.329432	7.699040	-6.208504	0.000000	0.000000	26.569612	3.019998	9.164883	7.333514	-8.886852	112.101873	11.641556	13.326083	1.477353	-2.605288	7.402087	-5.866163	98.843386	14.663071	58.914668	-2.278634	0.653404
1.600000	3.585648	-0.723980	89.340380	0.148325	0.890817	0.488387	-7.268891	2.817139	-30.977497	7.726448	0.134852	26.682810	15.778419	0.000000	-8.016448	-4.635686	8.634906	0.375652	0.006556	29.559308	-8.088209	0.000000	0.182392	0.683018	-1.155099	0.338721	0.908415	-1.227293	0.299652	1.660691	-1.227293	0.208456	1.660691	-1.010711	0.169369	1.392811	-0.938518	0.104219	1.057996	-0.866324	1.302809	7.726441	-6.424313	0.000000	0.000000	26.547001	2.926343	9.259102	7.264633	-8.881133	112.100078	11.539683	13.374522	1.707284	-2.687681	7.342662	-5.906411	98.284920	14.780458	59.435854	-2.213256	0.899571
